<svg xmlns="http://www.w3.org/2000/svg" width="120" height="120" fill="none" viewBox="0 0 120 120"><rect width="120" height="120" fill="#E5E5E5"/><g id="2"><rect width="1440" height="1024" fill="#fff" transform="translate(-660 -452)"/><g id="logo"><g clip-path="url(#clip0)"><rect width="120" height="120" fill="#000" rx="60"/><g id="train-comp"><g id="doors"><path id="door-right" fill="#fff" d="M59 47H76V76H59V47Z"/><path id="door-left" fill="#fff" d="M44 47H61V76H44V47Z"/></g><g id="train-line"><path fill="#fff" d="M-24 37.0245V31.0298C-15.7514 31.0146 262.704 31.0059 262.704 31.0059H262.708V31C279.935 31 281.621 31.0722 284.719 31.2049L284.721 31.205C284.929 31.2139 285.144 31.2231 285.37 31.2325L287.594 31.3147C295.341 31.5736 304.862 32.7691 312.355 38.4494C316.421 41.5303 322.293 49.3302 325.793 54.1747C329.029 58.6554 329.96 63.8064 327.76 68.7414C325.735 73.277 321.378 75.9824 316.101 75.9824H79.9999V76H73.9999V50C73.9999 49.4477 73.5522 49 72.9999 49H46.9999C46.4477 49 45.9999 49.4477 45.9999 50V76H39.9999V75.9824H-24V69.8806H39.9999V50C39.9999 46.134 43.1339 43 46.9999 43H72.9999C76.8659 43 79.9999 46.134 79.9999 50V69.8806H316.102C319.847 69.8806 321.944 67.7511 322.625 65.1088H92V59.0613H321.913C321.597 58.4437 321.174 57.887 320.746 57.342C306.702 38.1603 298.56 37.5835 288.263 37.3121C287.236 37.285 286.188 37.2574 285.111 37.2113C281.149 37.0481 278.462 36.9824 262.691 36.9824C254.639 36.9824 -15.4571 37.002 -24 37.0245Z"/><path fill="#fff" d="M-24 79.996V85.9821H348V79.996H-24Z"/><path fill="#fff" d="M228 52.9824H280V46.9409H228V52.9824Z"/><path fill="#fff" d="M160 52.9824H212V46.9409H160V52.9824Z"/><path fill="#fff" d="M92 52.9824H144V46.9409H92V52.9824Z"/><path fill="#fff" d="M-24 52.9824H28V46.9409H-24V52.9824Z"/><path fill="#fff" d="M-24 64.9824H28V58.9409H-24V64.9824Z"/></g></g></g></g></g><defs><clipPath id="clip0"><rect width="120" height="120" fill="#fff" rx="60"/></clipPath></defs></svg>